HIERARCHY
ROOT HipCenter
{
    OFFSET 0.0 0.0 -0.0
    CHANNELS 6 Xposition Yposition Zposition Zrotation Xrotation Yrotation
    JOINT Spine
    {
        OFFSET 0.0 0.12087439000606537 0.0
        CHANNELS 3 Zrotation Xrotation Yrotation
        JOINT ShoulderCenter
        {
            OFFSET 0.0 0.3344619572162628 0.0
            CHANNELS 3 Zrotation Xrotation Yrotation
            JOINT LeftShoulder
            {
                OFFSET 0.19092828035354614 0.0 0.0
                CHANNELS 3 Zrotation Xrotation Yrotation
                JOINT LeftElbow
                {
                    OFFSET 0.2974890470504761 0.0 0.0
                    CHANNELS 3 Zrotation Xrotation Yrotation
                    JOINT LeftWrist
                    {
                        OFFSET 0.2960035800933838 0.0 0.0
                        CHANNELS 3 Zrotation Xrotation Yrotation
                        JOINT LeftHand
                        {
                            OFFSET 0.044004518538713455 0.0 0.0
                            CHANNELS 3 Zrotation Xrotation Yrotation
                            End Site
                            {
                                OFFSET 0.017601806670427322 0.0 0.0
                            }
                        }
                    }
                }
            }
            JOINT RightShoulder
            {
                OFFSET -0.19092828035354614 0.0 0.0
                CHANNELS 3 Zrotation Xrotation Yrotation
                JOINT RightElbow
                {
                    OFFSET -0.2974890470504761 0.0 0.0
                    CHANNELS 3 Zrotation Xrotation Yrotation
                    JOINT RightWrist
                    {
                        OFFSET -0.2960035800933838 0.0 0.0
                        CHANNELS 3 Zrotation Xrotation Yrotation
                        JOINT RightHand
                        {
                            OFFSET -0.044004518538713455 0.0 0.0
                            CHANNELS 3 Zrotation Xrotation Yrotation
                            End Site
                            {
                                OFFSET -0.017601806670427322 0.0 0.0
                            }
                        }
                    }
                }
            }
            End Site
            {
                OFFSET 0.0 0.13378478586673737 0.0
            }
        }
    }
    JOINT LeftHip
    {
        OFFSET 0.13974782824516296 0.0 0.0
        CHANNELS 3 Zrotation Xrotation Yrotation
        JOINT LeftKnee
        {
            OFFSET 0.0 -0.40643906593322754 0.0
            CHANNELS 3 Zrotation Xrotation Yrotation
            JOINT LeftAnkle
            {
                OFFSET 0.0 -0.44780057668685913 0.0
                CHANNELS 3 Zrotation Xrotation Yrotation
                JOINT LeftFoot
                {
                    OFFSET 0.0 -0.10069404542446136 0.0
                    CHANNELS 3 Zrotation Xrotation Yrotation
                    End Site
                    {
                        OFFSET 0.0 0.0 0.04027761518955231
                    }
                }
            }
        }
    }
    JOINT RightHip
    {
        OFFSET -0.13974782824516296 0.0 0.0
        CHANNELS 3 Zrotation Xrotation Yrotation
        JOINT RightKnee
        {
            OFFSET 0.0 -0.40643906593322754 0.0
            CHANNELS 3 Zrotation Xrotation Yrotation
            JOINT RightAnkle
            {
                OFFSET 0.0 -0.44780057668685913 0.0
                CHANNELS 3 Zrotation Xrotation Yrotation
                JOINT RightFoot
                {
                    OFFSET 0.0 -0.10069404542446136 0.0
                    CHANNELS 3 Zrotation Xrotation Yrotation
                    End Site
                    {
                        OFFSET 0.0 0.0 0.04027761518955231
                    }
                }
            }
        }
    }
}
MOTION
Frames: 9
Frame Time: 0.03333333333333333
0.7559999823570251 -0.289000004529953 0.14300000667572021 16.798340475320593 -62.64268202992171 -159.43390297874603 0.5839080021963555 1.5734612478452825 -0.019231128874375353 6.57167801452148e-08 9.234552230227218e-07 0.6504778958602816 133.33046352755034 12.358426147705952 144.0944813347923 3.5522386546370843e-06 -6.875279059588129e-08 5.874844353536772 1.5295266955131556e-07 -48.578151975786966 22.460974571988874 3.975693351829398e-16 3.1805546814635168e-15 -6.3611093629270335e-15 158.32443847996484 51.090466371047306 -93.07837293229971 2.125072566366507e-06 -5.9791285696632055e-06 -11.526038106993251 -179.99999608777972 -46.77582264514218 143.17854904778923 0.0 -3.1805546814635168e-15 0.0 175.35579999143002 -55.06575195224808 -126.88428551527123 71.74757711909199 32.93741376464684 -96.96813095109776 -71.87584667190816 50.033867444540775 11.610897167984238 4.770832022195275e-15 2.648343778830095e-31 6.3611093629270335e-15 -158.46525384234005 -53.5816550460208 137.03190273587214 -72.74124331028857 27.630408439941995 111.5267568956688 46.41244249317931 53.65716327022955 11.537025599776769 3.180554681463516e-15 -6.361109362927033e-15 -3.180554681463516e-15
0.7559999823570251 -0.27900001406669617 0.15399999916553497 12.339083243375923 -57.28785838264542 -164.49697495706482 0.4072551538371675 1.4874623546144872 -0.03033102848675338 1.0397036001057957e-07 -3.5341388772595606e-06 0.6335690792799439 117.34098489094181 10.575807511797597 156.26679247676876 -3.4646427537683222e-06 1.1853243768242857e-05 5.700316821201962 4.577353884182689e-06 -47.15017979027929 22.519552941730268 0.0 0.0 0.0 -165.01026612383677 59.838908300818645 -118.61712194970436 -1.8837834862257751e-07 -9.182085721207589e-07 -11.039408496577419 -179.99999864728252 -39.445706590873314 141.65938054545424 -6.361109362927035e-15 4.4139062980501586e-32 -7.951386703658794e-16 172.7457800063986 -59.28488848008602 -129.14090350891956 70.74529693379141 31.961608436069714 -99.74362610472843 -76.09798243944557 52.281714552902464 14.771096553894962 1.5902773407317584e-15 0.0 0.0 -156.58487734676092 -59.145084884538136 141.43169957922325 -74.1077345351828 28.997873407772673 118.62940079283446 59.96369370424766 48.161384051922155 -1.665273628572403 3.1805546814635168e-15 0.0 0.0
0.7549999952316284 -0.25600001215934753 0.16699999570846558 8.857976094869532 -49.73342156263876 -168.18723214805374 0.5913686149215099 2.0450371849371907 -0.032690525880658204 2.43614698417037e-07 -1.127657478865151e-07 -0.10709231663354422 104.197796325319 10.089147906715736 174.39200079018107 5.259544864882683e-06 -5.111413256523402e-06 7.841992885564154 -6.0869481056022595e-06 -43.251788954019666 23.10381088847467 0.0 0.0 6.3611093629270335e-15 -110.96042124550482 48.95313924090334 -167.8357243704831 1.300604075537738e-06 6.554467687105792e-07 -12.94460478726829 179.9999982429981 -29.100518745943265 137.11972528981735 0.0 0.0 0.0 168.46346139627593 -68.30253012767074 -134.54602891358434 73.94187049352303 33.16094897485214 -114.99184444553364 -80.83426603771468 41.47970512580783 18.366526831413804 -9.54166404439055e-15 0.0 0.0 -146.80269073273374 -67.65547026345733 152.2453702434526 -78.9196770006432 30.262139533720227 133.4030550367694 76.25860689031008 25.511848263555468 -11.369067623459191 3.180554681463516e-15 0.0 0.0
0.753000020980835 -0.2280000001192093 0.1850000023841858 5.024084940672029 -40.853134139924414 -171.29956132605918 -0.2881887235540211 2.009961585552292 -0.058347344241239614 2.723826925923899e-07 9.419394788586326e-07 -0.7873501097436095 96.8146609115576 -1.7564890868256884 -165.70730832351873 -8.10978542217558e-07 1.156196947184965e-06 13.62602088863953 1.0865009364447007e-06 -46.86759250122571 26.617275694611003 6.3611093629270335e-15 -6.3611093629270335e-15 3.531125038440127e-31 -91.31133545223072 24.31725494326862 168.30222337285704 4.8122457793878865e-06 1.4215280203910805e-06 -19.179577815476424 179.99999521536665 -21.286835705495047 135.81775324503033 1.5902773407317584e-15 0.0 0.0 151.29243503083737 -80.8073138320947 -154.38471331989288 82.11508442292624 37.301651261254285 -135.33239096786184 -105.57465821555394 4.388899810555376 8.496327257245357 -1.1927080055488186e-15 0.0 0.0 -119.20436813828677 -76.63180533745886 -173.8266507133333 -87.54499742498882 36.00090914694544 147.61487711991015 113.26401306952224 -28.946983818429963 64.26387317383032 9.342879376799082e-15 0.0 0.0
0.753000020980835 -0.19900000095367432 0.20999999344348907 3.3664840512770025 -32.061719951048524 -172.88450480098248 -0.09158701291120304 1.4541088571677458 -0.045399850887288484 -5.349593988907407e-09 -1.2034980940167415e-07 -1.22942242155244 102.52943199191654 -14.631117710531678 -141.92077394010226 -5.908806808673866e-07 8.429319428188794e-07 21.815005442215448 -3.3127694926965768e-06 -51.97229162275678 29.263935976904996 0.0 0.0 -7.951386703658792e-15 -89.74677709390734 3.024522097887034 148.5564141130974 3.293777323141956e-06 7.056396526422029e-07 -25.639786168228422 -179.99999624808532 -22.25775439313871 137.61758269558052 -1.0933156717530838e-15 3.034560579909484e-32 -3.180554681463516e-15 34.7148959405286 -83.7362035149963 80.48234410059392 89.4759224243584 44.98428015824507 -147.65255191410375 174.84961267886672 1.81235223040353 179.23043564911399 -6.3611093629270335e-15 0.0 0.0 -59.06936023584924 -78.17928725440952 -104.43927283792742 -87.08466664409346 44.004656845068894 150.45690927743667 -133.7200306492892 22.17713157645237 172.49686573688018 6.361109362927033e-15 3.1805546814635164e-15 -1.7655625192200634e-31
0.753000020980835 -0.17100000381469727 0.23600000143051147 2.0825695233283876 -24.859711501114262 -174.46223620228483 -0.3150335178498269 0.26213027800063965 -0.007702526192467553 8.215416636932848e-08 1.113615562751266e-06 -0.8621685299723914 111.15164431750853 -12.482422345248718 -117.19379304022458 6.461471282488057e-06 -3.673571240363452e-06 32.86338961993313 -1.5288304421331627e-06 -48.5087546904345 29.090902983321584 3.1805546814635168e-15 -2.2069531490250793e-31 -7.951386703658792e-15 -99.67905252225802 -7.984392638574378 126.28959447596286 3.093182377096664e-06 -1.1788277579116e-06 -35.73426719110441 179.99999801508463 -19.6594887610714 136.48102813929876 -4.174478019420867e-15 -3.975693351829396e-16 -1.5902773407317588e-15 10.218340870240763 -74.26091392555391 46.6122852512743 79.94388289739682 52.610141821241164 -140.97000922093227 118.23111249379856 -15.454906519173369 169.01587900363268 -6.3611093629270335e-15 1.7655625192200634e-31 -3.1805546814635168e-15 -25.378643596169333 -71.01346926341746 -57.75273781188716 -71.51347236184974 53.911612611359914 136.36550468602937 -105.60302294496154 -20.5801174455977 -158.880983019994 3.1805546814635176e-15 -6.361109362927035e-15 -3.1805546814635176e-15
0.7519999742507935 -0.13699999451637268 0.25 1.5074163817178783 -18.429002206291784 -175.5624164439589 -0.09918029653191135 -2.323221135463696 0.0584963178921291 -9.239538379095237e-09 -3.301635727142307e-08 0.49335964265476356 119.33799612182985 -2.367803738304634 -99.30667546899619 5.923090494870754e-06 1.3025831224708254e-06 45.61715180097833 -2.209361574096839e-06 -46.275927890488965 33.904090602783036 7.951386703658794e-16 -3.1805546814635168e-15 6.3611093629270335e-15 -110.85518116062835 -3.451601312717405 107.79688039401482 1.2199898552538277e-06 -3.2050336605760704e-06 -48.34288016099801 179.99999882674302 -20.187953299907818 140.10174711378704 -4.770832022195275e-15 -3.1805546814635168e-15 -1.3241718894150476e-31 6.121916961272902 -63.87407621891504 31.816512804764873 60.96758777763701 58.94913346049693 -123.78759958765282 96.58862521243161 -38.81200728633249 136.20341427339582 -3.1805546814635168e-15 8.827812596100317e-32 -3.1805546814635168e-15 -15.893110412126783 -60.894672719413585 -35.58282903050611 -46.77897751908025 61.28625167128834 111.5647819225265 -101.97972237969842 -21.437541619265225 -155.69037979356736 -3.1805546814635168e-15 -4.4139062980501586e-32 1.5902773407317584e-15
0.7490000128746033 -0.07999999821186066 0.23899999260902405 0.4774476502244272 -9.925907129838588 -177.09882526888882 -0.3510863783406217 -6.13636981236195 0.1350485296261498 -1.978620819117766e-08 -2.019047741943064e-07 2.918269541767637 127.17870882090676 8.87709486075472 -94.3772448113864 6.1672593081382896e-06 -2.905701916908513e-07 53.73156882228977 -6.909913283238017e-07 -45.16931507823805 37.64425547309953 2.9817700138720476e-15 -2.782985346280578e-15 -3.975693351829396e-16 -117.43861504930223 7.398832631786865 101.12830265917543 1.762520221953437e-06 4.120792069737011e-06 -58.64108560976632 179.99999914203036 -23.1849525711641 145.45018958111558 -2.2069531490250793e-32 -3.1805546814635168e-15 -7.951386703658792e-16 5.699978451023951 -47.49964315214443 8.792176967474528 11.321781859952722 64.5340257513499 -73.48113773947058 89.2408438913859 -34.16185823428624 128.1237355134263 0.0 0.0 0.0 -12.981581785489904 -43.76856695787738 -4.478026202386094 11.224337083721213 57.08455853966286 50.036620850226555 -95.02741292100987 -21.829946292991202 -148.66553178658725 -3.1805546814635168e-15 8.827812596100317e-32 -3.1805546814635168e-15
0.7480000257492065 0.010999999940395355 0.2029999941587448 0.4774760702057153 5.710400835002901 -177.70705330384888 0.666381580939881 -7.985304972239866 0.5416385437576796 -3.836194663137355e-09 -1.5809598703073286e-06 3.817164228811663 136.20372319617132 12.634056973104306 -104.75114252555991 3.773183426159082e-07 2.351089511552774e-06 60.53831108470221 -3.4599031552263126e-06 -40.691595497922115 40.57777795541117 8.83349366609594e-15 -7.951386703658792e-16 6.129467534987623e-32 -119.95787400280717 13.266995415154668 109.07184715701656 -3.937596490839288e-06 2.4302203177323997e-06 -67.52097533931975 179.99999963681327 -26.0835875235155 148.43815263646425 0.0 0.0 -3.1805546814635164e-15 7.86272096043895 -20.366763674116807 -32.08764557750601 -35.542558187435645 37.6158977238838 -17.21395850304591 75.94401856255898 -20.31279732915665 109.35927764660391 -7.172597734331508e-32 -6.3611093629270335e-15 -1.2921003393445538e-15 -10.451712377622611 -14.402233187739617 38.70829428278525 30.997457441112232 23.909591394205112 10.895400849616282 -76.2736647153125 -18.122006397750102 -117.93231969305285 3.1805546814635168e-15 1.7103886904944364e-31 6.1623246953355635e-15
